# xmcd
# 
# Track frame offsets:
#     150
#     17400
#     32325
#     50474
#     72672
#     86170
#     117220
#     129218
#     151418
#     177216
#     195066
#     213066
# 
# Disc length: 3084
# 
# Revision: 0
# Processed by: cddbd v1.5.2PL0 Copyright (c) Steve Scherf et al.
# Submitted via: fre:ac v1.0.27
# 
DISCID=8d0c0a0c
DTITLE=Grunting Pigs - Grunt Away
DYEAR=0
DGENRE=Blues
TTITLE0=Grunting Pigs Boogie
TTITLE1=Can't Get No Grinding
TTITLE2=Aw Shucks, Hush Your Mouth
TTITLE3=Need My baby
TTITLE4=Hound Dog
TTITLE5=I'll Play The Blues For You
TTITLE6=Tiger Man
TTITLE7=Ain't That Fine
TTITLE8=Bright Lights, Big City
TTITLE9=Mystery Train
TTITLE10=Just Your Fool
TTITLE11=Bring It On Home
EXTD=
EXTT0=
EXTT1=
EXTT2=
EXTT3=
EXTT4=
EXTT5=
EXTT6=
EXTT7=
EXTT8=
EXTT9=
EXTT10=
EXTT11=
PLAYORDER=
